<?xml version="1.0" encoding="UTF-8" standalone="no"?>
<!-- Created with Inkscape (http://www.inkscape.org/) -->

<svg
   width="6.7676601mm"
   height="6.7108717mm"
   viewBox="0 0 6.7676602 6.7108715"
   version="1.1"
   id="svg5"
   xmlns="http://www.w3.org/2000/svg"
   xmlns:svg="http://www.w3.org/2000/svg">
  <defs
     id="defs2">
    <style
       id="style9">.cls-1,.cls-2,.cls-3,.cls-4,.cls-5,.cls-6{fill:#fff;}.cls-2{opacity:0.8;}.cls-3{opacity:0.4;}.cls-4{opacity:0.5;}.cls-5{opacity:0.6;}.cls-6{opacity:0.7;}</style>
  </defs>
  <g
     id="layer1"
     transform="translate(-18.144134,-3.8533053)">
    <g
       id="g275">
      <path
         class="cls-1"
         d="m 24.799849,6.3346857 c -0.06907,-0.1196489 -0.527334,0.00238 -1.19054,0.2908287 A 17.161824,17.161824 0 0 1 21.870504,7.7622822 17.163876,17.163876 0 0 1 20.016477,8.6998205 C 19.43511,9.129958 19.100431,9.4657406 19.16949,9.585328 l 8e-6,6.29e-5 a 3.3683281,3.3683281 0 0 0 5.630351,-3.2507052 z"
         id="path39"
         style="stroke-width:0.128227" />
      <path
         class="cls-2"
         d="m 23.609309,6.625517 c 0.645057,-0.4888669 1.014424,-0.8844432 0.925609,-1.0382789 -0.12141,-0.2103109 -1.061623,0.094668 -2.260688,0.7019321 -0.286179,0.1841345 -0.5981,0.3746021 -0.927982,0.5650647 -0.329881,0.1904625 -0.650786,0.3653352 -0.953323,0.5211161 -1.125487,0.7348031 -1.859681,1.3965397 -1.738269,1.6068493 0.08881,0.1538357 0.616004,0.031744 1.361821,-0.2823746 A 17.163876,17.163876 0 0 0 21.870504,7.7622822 17.161824,17.161824 0 0 0 23.609309,6.625517 Z"
         id="path41"
         style="stroke-width:0.128227" />
      <path
         class="cls-3"
         d="m 19.943393,4.4245517 c 0.280209,-0.161787 0.483538,-0.3342182 0.454142,-0.3851207 -0.0294,-0.050902 -0.280379,0.038944 -0.560588,0.200731 -0.280209,0.1617871 -0.483537,0.3342183 -0.454141,0.3851245 0.0294,0.050906 0.28038,-0.038948 0.560587,-0.2007348 z"
         id="path43"
         style="stroke-width:0.128227" />
      <path
         class="cls-4"
         d="m 20.373407,5.1692463 c 1.045705,-0.6037573 1.840756,-1.1844119 1.775797,-1.2969238 -0.06496,-0.1125118 -0.965321,0.285756 -2.011027,0.8894518 -1.045694,0.6037586 -1.840749,1.1843504 -1.77579,1.2968623 0.06496,0.1125118 0.965321,-0.2856945 2.01102,-0.8893903 z"
         id="path45"
         style="stroke-width:0.128227" />
      <path
         class="cls-5"
         d="m 23.212558,4.2409763 c -0.09406,-0.1629142 -1.303616,0.3593239 -2.701622,1.1664434 -1.397992,0.8071811 -2.455046,1.5935124 -2.360981,1.7564894 0.09407,0.1629142 1.303618,-0.3593251 2.701623,-1.1665062 1.397999,-0.8071183 2.455045,-1.5935138 2.36098,-1.7564266 z"
         id="path47"
         style="stroke-width:0.128227" />
      <path
         class="cls-6"
         d="m 22.27423,6.289165 c 1.069032,-0.6877821 1.774726,-1.2860308 1.677569,-1.4542664 -0.123172,-0.2133781 -1.489407,0.3448624 -3.051583,1.246774 -1.562176,0.9019116 -2.728715,1.8060198 -2.605551,2.019335 0.09717,0.1682985 0.968069,-0.1437544 2.09826,-0.7256618 0.302537,-0.1557757 0.62345,-0.3306484 0.953323,-0.521116 0.329874,-0.1904677 0.641803,-0.38092 0.927982,-0.5650648 z"
         id="path49"
         style="stroke-width:0.128227" />
    </g>
  </g>
</svg>
