<?xml version="1.0" encoding="UTF-8" standalone="no"?>
<!-- Created with Inkscape (http://www.inkscape.org/) -->

<svg
   width="33.63649mm"
   height="6.7108722mm"
   viewBox="0 0 33.63649 6.710872"
   version="1.1"
   id="svg5"
   inkscape:version="1.1 (c68e22c387, 2021-05-23)"
   sodipodi:docname="asl_logo_title.svg"
   xmlns:inkscape="http://www.inkscape.org/namespaces/inkscape"
   xmlns:sodipodi="http://sodipodi.sourceforge.net/DTD/sodipodi-0.dtd"
   xmlns="http://www.w3.org/2000/svg"
   xmlns:svg="http://www.w3.org/2000/svg">
  <sodipodi:namedview
     id="namedview7"
     pagecolor="#ffffff"
     bordercolor="#666666"
     borderopacity="1.0"
     inkscape:pageshadow="2"
     inkscape:pageopacity="0.0"
     inkscape:pagecheckerboard="true"
     inkscape:document-units="mm"
     showgrid="false"
     inkscape:zoom="4.1524866"
     inkscape:cx="70.680542"
     inkscape:cy="75.978572"
     inkscape:window-width="3200"
     inkscape:window-height="1733"
     inkscape:window-x="1911"
     inkscape:window-y="-9"
     inkscape:window-maximized="1"
     inkscape:current-layer="layer1"
     fit-margin-top="0"
     fit-margin-left="0"
     fit-margin-right="0"
     fit-margin-bottom="0" />
  <defs
     id="defs2">
    <style
       id="style9">.cls-1,.cls-2,.cls-3,.cls-4,.cls-5,.cls-6{fill:#fff;}.cls-2{opacity:0.8;}.cls-3{opacity:0.4;}.cls-4{opacity:0.5;}.cls-5{opacity:0.6;}.cls-6{opacity:0.7;}</style>
  </defs>
  <g
     inkscape:label="Layer 1"
     inkscape:groupmode="layer"
     id="layer1"
     transform="translate(-18.144134,-3.8533054)">
    <g
       id="g73"
       transform="matrix(0.12822738,0,0,0.12822738,15.832148,1.5964276)">
      <path
         class="cls-1"
         d="m 91.43537,36.15439 a 8.885,8.885 0 0 1 4.65235,-1.05957 q 3.50976,0 5.21484,1.62207 a 6.37181,6.37181 0 0 1 1.70606,4.835 V 52.048 H 99.43245 V 49.76279 A 5.798,5.798 0 0 1 97.36311,51.65049 6.48673,6.48673 0 0 1 94.1678,52.379 6.76941,6.76941 0 0 1 91.8328,51.99814 4.97,4.97 0 0 1 90.078,50.93857 4.77812,4.77812 0 0 1 88.96863,49.3165 5.2845,5.2845 0 0 1 88.57117,47.24717 4.56045,4.56045 0 0 1 90.078,43.63779 6.41837,6.41837 0 0 1 93.869,42.11435 l 4.60254,-0.46386 q 0.96093,-0.09814 0.96094,-0.76075 v -0.36425 a 1.888,1.888 0 0 0 -0.81153,-1.57325 4.08248,4.08248 0 0 0 -2.4668,-0.6123 5.92661,5.92661 0 0 0 -2.68164,0.5791 2.89431,2.89431 0 0 0 -1.52343,1.9707 l -2.88086,-1.82128 a 5.34761,5.34761 0 0 1 2.36715,-2.91407 z m 3.22852,8.84082 a 3.07211,3.07211 0 0 0 -1.80469,0.74512 2.04455,2.04455 0 0 0 0.09961,2.94727 3.07173,3.07173 0 0 0 2.03614,0.5791 4.95485,4.95485 0 0 0 1.85449,-0.33106 4.21444,4.21444 0 0 0 1.39062,-0.87793 3.98827,3.98827 0 0 0 0.87794,-1.25781 3.547,3.547 0 0 0 0.31446,-1.44043 v -0.96 z"
         id="path15" />
      <path
         class="cls-1"
         d="m 105.703,40.42588 a 8.37788,8.37788 0 0 1 1.65528,-2.78125 7.59979,7.59979 0 0 1 2.61621,-1.8711 8.49553,8.49553 0 0 1 3.46,-0.67871 8.61881,8.61881 0 0 1 3.42676,0.64551 7.03173,7.03173 0 0 1 2.5332,1.80469 7.78142,7.78142 0 0 1 1.55555,2.76465 11.19507,11.19507 0 0 1 0.53028,3.52636 v 1.02637 h -12.71483 v 0.0332 a 5.00452,5.00452 0 0 0 0.5791,1.8545 4.19193,4.19193 0 0 0 1.126,1.30761 4.96227,4.96227 0 0 0 1.52344,0.77832 5.76713,5.76713 0 0 0 1.73828,0.26465 6.22416,6.22416 0 0 0 2.88086,-0.6289 7.81462,7.81462 0 0 0 2.08594,-1.52344 l 1.68847,2.88086 a 10.61064,10.61064 0 0 1 -2.64843,1.80468 8.82011,8.82011 0 0 1 -3.97364,0.81153 9.7879,9.7879 0 0 1 -3.59277,-0.62891 7.58245,7.58245 0 0 1 -2.71484,-1.77148 8.01821,8.01821 0 0 1 -1.72168,-2.71582 9.53278,9.53278 0 0 1 -0.61329,-3.49317 9.86991,9.86991 0 0 1 0.58011,-3.41015 z m 10.66114,-1.07617 a 3.97921,3.97921 0 0 0 -2.9961,-1.07618 4.40286,4.40286 0 0 0 -3.1123,1.043 4.95563,4.95563 0 0 0 -1.457,2.83106 h 8.77441 a 4.50332,4.50332 0 0 0 -1.20906,-2.79788 z"
         id="path17" />
      <path
         class="cls-1"
         d="m 129.30745,35.88974 a 5.10945,5.10945 0 0 1 2.92968,-0.79492 6.69654,6.69654 0 0 1 1.62305,0.19824 v 3.8086 c -0.28711,-0.06641 -0.5791,-0.12207 -0.87793,-0.166 a 6.46277,6.46277 0 0 0 -0.94336,-0.0664 3.975,3.975 0 0 0 -3.50977,1.47363 7.13307,7.13307 0 0 0 -1.02636,4.12207 v 7.583 h -3.57617 V 35.49228 H 127.37 v 2.61524 a 6.05183,6.05183 0 0 1 1.93745,-2.21778 z"
         id="path19" />
      <path
         class="cls-1"
         d="m 134.55354,40.27646 a 8.079,8.079 0 0 1 1.83789,-2.748 8.49172,8.49172 0 0 1 2.78125,-1.78809 9.777,9.777 0 0 1 6.9873,0 8.49161,8.49161 0 0 1 2.78125,1.78809 8.07649,8.07649 0 0 1 1.83692,2.748 9.53527,9.53527 0 0 1 0,6.98731 8.07649,8.07649 0 0 1 -1.83692,2.748 8.49161,8.49161 0 0 1 -2.78123,1.78813 9.777,9.777 0 0 1 -6.9873,0 8.49172,8.49172 0 0 1 -2.78125,-1.78809 8.079,8.079 0 0 1 -1.83789,-2.748 9.54827,9.54827 0 0 1 0,-6.98731 z m 12.83105,1.374 a 4.77979,4.77979 0 0 0 -1.05957,-1.63868 4.84876,4.84876 0 0 0 -1.60547,-1.05957 5.72489,5.72489 0 0 0 -4.10644,0 4.84887,4.84887 0 0 0 -1.60547,1.05957 4.7658,4.7658 0 0 0 -1.05957,1.63868 6.086,6.086 0 0 0 0,4.23828 4.77006,4.77006 0 0 0 1.05957,1.63965 4.84887,4.84887 0 0 0 1.60547,1.05957 5.72489,5.72489 0 0 0 4.10644,0 4.84876,4.84876 0 0 0 1.60547,-1.05957 4.78406,4.78406 0 0 0 1.05957,-1.63965 6.086,6.086 0 0 0 0,-4.23828 z"
         id="path21" />
      <path
         class="cls-1"
         d="m 155.17756,36.45224 a 7.63609,7.63609 0 0 1 4.835,-1.35742 8.69469,8.69469 0 0 1 3.97364,0.81153 7.36688,7.36688 0 0 1 2.61523,2.20117 l -2.417,2.31836 a 4.50076,4.50076 0 0 0 -1.70508,-1.47364 5.69809,5.69809 0 0 0 -2.666,-0.5791 3.92722,3.92722 0 0 0 -1.96972,0.42969 1.323,1.323 0 0 0 -0.74512,1.19238 1.30862,1.30862 0 0 0 0.97656,1.291 23.419,23.419 0 0 0 2.93067,0.79492 q 1.05908,0.23145 2.06933,0.54688 a 6.37785,6.37785 0 0 1 1.80469,0.877 4.21549,4.21549 0 0 1 1.27441,1.44043 4.62236,4.62236 0 0 1 0.48047,2.23535 5.19806,5.19806 0 0 1 -0.49707,2.35059 4.497,4.497 0 0 1 -1.374,1.63867 6.03371,6.03371 0 0 1 -2.11914,0.96094 11.14683,11.14683 0 0 1 -2.73145,0.31445 11.40752,11.40752 0 0 1 -4.33789,-0.79492 6.10584,6.10584 0 0 1 -3.01269,-2.54981 l 2.45019,-2.35058 a 4.41064,4.41064 0 0 0 2.13575,1.87109 7.643,7.643 0 0 0 2.99609,0.5791 4.43649,4.43649 0 0 0 2.05371,-0.41406 1.42907,1.42907 0 0 0 0.79395,-1.374 1.35259,1.35259 0 0 0 -0.89356,-1.34083 16.11755,16.11755 0 0 0 -2.78125,-0.77832 q -0.96093,-0.19921 -2.00391,-0.51269 a 7.32231,7.32231 0 0 1 -1.90332,-0.87793 4.489,4.489 0 0 1 -1.40722,-1.47363 4.33986,4.33986 0 0 1 -0.54688,-2.26758 4.46949,4.46949 0 0 1 1.72161,-3.70904 z"
         id="path23" />
      <path
         class="cls-1"
         d="m 168.98225,35.49228 h 3.57617 v 2.35059 a 6.82373,6.82373 0 0 1 2.334,-2.00293 7.09012,7.09012 0 0 1 3.36132,-0.74512 7.68285,7.68285 0 0 1 3.0293,0.59571 7.16013,7.16013 0 0 1 2.4502,1.70507 8.137,8.137 0 0 1 1.65625,2.73243 11.18748,11.18748 0 0 1 0,7.30078 8.35082,8.35082 0 0 1 -1.65625,2.73144 6.8679,6.8679 0 0 1 -2.4502,1.70606 7.79768,7.79768 0 0 1 -2.99609,0.5791 6.70348,6.70348 0 0 1 -3.37793,-0.79492 8.204,8.204 0 0 1 -2.35059,-1.98633 V 58.67 h -3.57617 z m 11.98633,12.08594 a 5.36289,5.36289 0 0 0 1.35742,-3.80859 5.36207,5.36207 0 0 0 -1.35742,-3.80762 4.70175,4.70175 0 0 0 -3.60938,-1.457 4.76976,4.76976 0 0 0 -3.59277,1.42383 5.29739,5.29739 0 0 0 -1.374,3.84082 5.2982,5.2982 0 0 0 1.374,3.84179 4.76976,4.76976 0 0 0 3.59277,1.42383 4.70175,4.70175 0 0 0 3.60938,-1.45706 z"
         id="path25" />
      <path
         class="cls-1"
         d="m 190.58284,36.15439 a 8.885,8.885 0 0 1 4.65234,-1.05957 q 3.50976,0 5.21484,1.62207 a 6.36808,6.36808 0 0 1 1.70606,4.835 V 52.048 h -3.57617 v -2.28521 a 5.798,5.798 0 0 1 -2.06934,1.8877 6.48673,6.48673 0 0 1 -3.19531,0.72851 6.76941,6.76941 0 0 1 -2.335,-0.38086 4.97,4.97 0 0 1 -1.75489,-1.05957 4.77812,4.77812 0 0 1 -1.10937,-1.62207 5.2845,5.2845 0 0 1 -0.39746,-2.06933 4.56045,4.56045 0 0 1 1.50683,-3.60938 6.41837,6.41837 0 0 1 3.791,-1.52344 l 4.60254,-0.46386 q 0.96093,-0.09814 0.96094,-0.76075 v -0.36425 a 1.888,1.888 0 0 0 -0.81153,-1.57325 4.08247,4.08247 0 0 0 -2.46679,-0.6123 5.92655,5.92655 0 0 0 -2.68164,0.5791 2.89429,2.89429 0 0 0 -1.52344,1.9707 l -2.88086,-1.82128 a 5.34759,5.34759 0 0 1 2.36725,-2.91407 z m 3.22851,8.84082 a 3.07214,3.07214 0 0 0 -1.80469,0.74512 2.04455,2.04455 0 0 0 0.0996,2.94727 3.07173,3.07173 0 0 0 2.03614,0.5791 4.95485,4.95485 0 0 0 1.85449,-0.33106 4.21444,4.21444 0 0 0 1.39062,-0.87793 3.98827,3.98827 0 0 0 0.87793,-1.25781 3.547,3.547 0 0 0 0.31446,-1.44043 v -0.96 z"
         id="path27" />
      <path
         class="cls-1"
         d="m 204.91682,40.29306 a 8.0631,8.0631 0 0 1 4.57031,-4.55273 9.4537,9.4537 0 0 1 3.5586,-0.64551 8.83692,8.83692 0 0 1 3.47754,0.64551 8.27909,8.27909 0 0 1 2.64843,1.77148 l -2.15234,2.81446 a 6.69656,6.69656 0 0 0 -1.75488,-1.25781 5.1197,5.1197 0 0 0 -2.31739,-0.49708 5.37835,5.37835 0 0 0 -1.9873,0.36426 4.4819,4.4819 0 0 0 -1.58887,1.043 4.90937,4.90937 0 0 0 -1.043,1.63965 6.26941,6.26941 0 0 0 0,4.30371 4.90937,4.90937 0 0 0 1.043,1.63965 4.52078,4.52078 0 0 0 1.57227,1.043 5.69507,5.69507 0 0 0 4.40429,-0.166 7.61673,7.61673 0 0 0 1.83789,-1.291 l 2.05274,2.84765 a 8.53914,8.53914 0 0 1 -2.64941,1.75489 9.08966,9.08966 0 0 1 -3.67481,0.69531 9.56,9.56 0 0 1 -3.543,-0.62891 7.77469,7.77469 0 0 1 -2.71484,-1.77148 8.08056,8.08056 0 0 1 -1.75586,-2.73242 9.46671,9.46671 0 0 1 -0.62891,-3.50977 9.257,9.257 0 0 1 0.64554,-3.50986 z"
         id="path29" />
      <path
         class="cls-1"
         d="m 220.80842,40.42588 a 8.37771,8.37771 0 0 1 1.65528,-2.78125 7.59979,7.59979 0 0 1 2.61621,-1.8711 8.49553,8.49553 0 0 1 3.46,-0.67871 8.61873,8.61873 0 0 1 3.42675,0.64551 7.03168,7.03168 0 0 1 2.53321,1.80469 7.78142,7.78142 0 0 1 1.55566,2.76465 11.19507,11.19507 0 0 1 0.53028,3.52636 v 1.02637 h -12.71489 v 0.0332 a 5.00452,5.00452 0 0 0 0.5791,1.8545 4.1918,4.1918 0 0 0 1.126,1.30761 4.96216,4.96216 0 0 0 1.52344,0.77832 5.76713,5.76713 0 0 0 1.73828,0.26465 6.22419,6.22419 0 0 0 2.88086,-0.6289 7.81478,7.81478 0 0 0 2.08594,-1.52344 l 1.68846,2.88086 a 10.61053,10.61053 0 0 1 -2.64844,1.80468 8.82007,8.82007 0 0 1 -3.97363,0.81153 9.7879,9.7879 0 0 1 -3.59277,-0.62891 7.58258,7.58258 0 0 1 -2.71486,-1.7715 8.01852,8.01852 0 0 1 -1.72168,-2.71582 9.533,9.533 0 0 1 -0.61328,-3.49317 9.86991,9.86991 0 0 1 0.58008,-3.41013 z m 10.66113,-1.07617 a 3.97917,3.97917 0 0 0 -2.99609,-1.07618 4.40286,4.40286 0 0 0 -3.1123,1.043 4.9557,4.9557 0 0 0 -1.457,2.83106 h 8.77442 a 4.50327,4.50327 0 0 0 -1.20903,-2.79788 z"
         id="path31" />
      <path
         class="cls-1"
         d="m 242.67463,52.048 h -3.64258 V 28.87021 h 3.64258 z"
         id="path33" />
      <path
         class="cls-1"
         d="m 248.41682,36.15439 a 8.885,8.885 0 0 1 4.65234,-1.05957 q 3.50977,0 5.21485,1.62207 a 6.36811,6.36811 0 0 1 1.70605,4.835 V 52.048 h -3.57617 v -2.28521 a 5.79783,5.79783 0 0 1 -2.06934,1.8877 6.48673,6.48673 0 0 1 -3.19531,0.72851 6.76941,6.76941 0 0 1 -2.335,-0.38086 4.97,4.97 0 0 1 -1.75488,-1.05957 4.77829,4.77829 0 0 1 -1.10936,-1.62207 5.2845,5.2845 0 0 1 -0.39746,-2.06933 4.56043,4.56043 0 0 1 1.50684,-3.60938 6.41832,6.41832 0 0 1 3.791,-1.52344 l 4.60254,-0.46386 q 0.96094,-0.09814 0.96094,-0.76075 v -0.36425 a 1.888,1.888 0 0 0 -0.81152,-1.57325 4.0825,4.0825 0 0 0 -2.4668,-0.6123 5.92658,5.92658 0 0 0 -2.68164,0.5791 2.89432,2.89432 0 0 0 -1.52344,1.9707 l -2.88086,-1.82128 a 5.34763,5.34763 0 0 1 2.36722,-2.91407 z m 3.22852,8.84082 a 3.07211,3.07211 0 0 0 -1.80469,0.74512 2.04455,2.04455 0 0 0 0.0996,2.94727 3.07172,3.07172 0 0 0 2.03613,0.5791 4.95485,4.95485 0 0 0 1.85449,-0.33106 4.21449,4.21449 0 0 0 1.39063,-0.87793 3.98827,3.98827 0 0 0 0.87793,-1.25781 3.54715,3.54715 0 0 0 0.31445,-1.44043 v -0.96 z"
         id="path35" />
      <path
         class="cls-1"
         d="m 266.90608,37.87607 a 8.20409,8.20409 0 0 1 2.35058,-1.98633 6.70353,6.70353 0 0 1 3.37793,-0.79492 7.79773,7.79773 0 0 1 2.9961,0.5791 6.86786,6.86786 0 0 1 2.45019,1.70608 8.35065,8.35065 0 0 1 1.65625,2.73144 11.23693,11.23693 0 0 1 0,7.31739 8.16075,8.16075 0 0 1 -1.65625,2.71484 7.14949,7.14949 0 0 1 -2.45019,1.70606 7.70037,7.70037 0 0 1 -3.0293,0.5957 7.09019,7.09019 0 0 1 -3.36133,-0.74512 6.83417,6.83417 0 0 1 -2.334,-2.00293 V 52.048 h -3.57617 V 28.87021 h 3.57617 z m 8.41015,2.08594 a 4.70171,4.70171 0 0 0 -3.60937,-1.457 4.76975,4.76975 0 0 0 -3.59277,1.42383 5.2974,5.2974 0 0 0 -1.374,3.84082 5.29821,5.29821 0 0 0 1.374,3.84179 4.76975,4.76975 0 0 0 3.59277,1.42383 4.70171,4.70171 0 0 0 3.60937,-1.457 5.36285,5.36285 0 0 0 1.35743,-3.80859 5.362,5.362 0 0 0 -1.35743,-3.80769 z"
         id="path37" />
      <path
         class="cls-1"
         d="m 69.93593,36.952 c -0.53869,-0.9331 -4.11249,0.01856 -9.2846,2.26807 A 133.839,133.839 0 0 1 47.091,48.08532 133.855,133.855 0 0 1 32.6321,55.39685 c -4.53387,3.35449 -7.14392,5.97314 -6.60535,6.90576 l 6e-5,4.9e-4 A 26.2684,26.2684 0 0 0 69.93593,36.952 Z"
         id="path39" />
      <path
         class="cls-2"
         d="m 60.65133,39.22009 c 5.03057,-3.8125 7.91113,-6.89746 7.2185,-8.09717 -0.94684,-1.64014 -8.27923,0.73828 -17.63031,5.47412 -2.23181,1.436 -4.66437,2.92139 -7.237,4.40674 -2.57263,1.48535 -5.07525,2.84912 -7.43463,4.064 -8.77728,5.73047 -14.503,10.89112 -13.55615,12.53125 0.69256,1.19971 4.804,0.24756 10.62036,-2.20214 A 133.855,133.855 0 0 0 47.091,48.08532 133.839,133.839 0 0 0 60.65133,39.22009 Z"
         id="path41" />
      <path
         class="cls-3"
         d="m 32.06215,22.05554 c 2.18525,-1.26172 3.77094,-2.60645 3.54169,-3.00342 -0.22925,-0.39697 -2.18658,0.30371 -4.37183,1.56543 -2.18525,1.26172 -3.77093,2.60645 -3.54168,3.00345 0.22925,0.397 2.18658,-0.30374 4.37182,-1.56546 z"
         id="path43" />
      <path
         class="cls-4"
         d="m 35.41567,27.86315 c 8.15509,-4.70849 14.35541,-9.23681 13.84882,-10.11425 -0.50659,-0.87744 -7.5282,2.22851 -15.68329,6.93652 -8.155,4.7085 -14.35535,9.23633 -13.84876,10.11377 0.50659,0.87744 7.5282,-2.22803 15.68323,-6.93604 z"
         id="path45" />
      <path
         class="cls-5"
         d="m 57.55721,20.6239 c -0.73352,-1.27051 -10.16644,2.80224 -21.069,9.09668 -10.90244,6.29492 -19.14603,12.42724 -18.41245,13.69824 0.73359,1.27051 10.16645,-2.80225 21.069,-9.09717 C 50.04726,28.02722 58.29079,21.8944 57.55721,20.6239 Z"
         id="path47" />
      <path
         class="cls-6"
         d="m 50.23952,36.597 c 8.337,-5.36377 13.84046,-10.0293 13.08277,-11.34131 -0.96058,-1.66406 -11.61536,2.68946 -23.79822,9.72315 -12.18286,7.03369 -21.28028,14.08451 -20.31977,15.74808 0.75776,1.3125 7.54963,-1.12109 16.36359,-5.65918 2.35938,-1.21484 4.86206,-2.57861 7.43463,-4.064 2.57257,-1.48539 5.00519,-2.97066 7.237,-4.40674 z"
         id="path49" />
    </g>
  </g>
</svg>
